<svg height="569pt" viewBox="0 0 569.286 569" width="569pt" xmlns="http://www.w3.org/2000/svg"><path d="m559.515625 38.074219h-75.867187v-37.929688h-18.964844v37.929688h-75.867188v-37.929688h-18.964844v37.929688h-75.867187v-37.929688h-18.96875v37.929688h-75.867187v-37.929688h-18.964844v37.929688h-75.867188v-37.929688h-18.964844v37.929688h-75.867187c-5.238281 0-9.484375 4.246093-9.484375 9.484375v512.101562c0 5.234375 4.246094 9.480469 9.484375 9.480469h550.03125c5.238281 0 9.484375-4.246094 9.484375-9.480469v-512.101562c0-5.238282-4.246094-9.484375-9.484375-9.484375zm-9.480469 341.402343h-85.351562c-5.238282 0-9.484375 4.246094-9.484375 9.484376v85.347656h-436.234375v-322.433594h531.070312zm-13.410156 18.964844-62.457031 62.460938v-62.460938zm-517.660156 94.835938h445.71875c2.511718-.007813 4.921875-1.003906 6.703125-2.78125l78.648437-78.644532v100.390626h-531.070312zm0-436.234375h66.386718v37.933593h18.964844v-37.933593h75.867188v37.933593h18.964844v-37.933593h75.867187v37.933593h18.96875v-37.933593h75.867187v37.933593h18.964844v-37.933593h75.867188v37.933593h18.964844v-37.933593h66.386718v75.867187h-531.070312zm531.070312 493.132812h-531.070312v-18.964843h531.070312zm0 0"/><path d="m256.050781 246.710938h56.898438c5.238281 0 9.484375-4.246094 9.484375-9.484376v-56.898437c0-5.238281-4.246094-9.484375-9.484375-9.484375h-56.898438c-5.238281 0-9.484375 4.246094-9.484375 9.484375v56.898437c0 5.238282 4.246094 9.484376 9.484375 9.484376zm9.484375-56.902344h37.929688v37.933594h-37.929688zm0 0"/><path d="m350.882812 246.710938h56.902344c5.234375 0 9.480469-4.246094 9.480469-9.484376v-56.898437c0-5.238281-4.246094-9.484375-9.480469-9.484375h-56.902344c-5.238281 0-9.480468 4.246094-9.480468 9.484375v56.898437c0 5.238282 4.242187 9.484376 9.480468 9.484376zm9.484376-56.902344h37.933593v37.933594h-37.933593zm0 0"/><path d="m445.71875 246.710938h56.898438c5.238281 0 9.484374-4.246094 9.484374-9.484376v-56.898437c0-5.238281-4.246093-9.484375-9.484374-9.484375h-56.898438c-5.238281 0-9.484375 4.246094-9.484375 9.484375v56.898437c0 5.238282 4.246094 9.484376 9.484375 9.484376zm9.480469-56.902344h37.933593v37.933594h-37.933593zm0 0"/><path d="m350.882812 436.375h56.902344c5.234375 0 9.480469-4.242188 9.480469-9.480469v-56.902343c0-5.238282-4.246094-9.480469-9.480469-9.480469h-56.902344c-5.238281 0-9.480468 4.242187-9.480468 9.480469v56.902343c0 5.238281 4.242187 9.480469 9.480468 9.480469zm9.484376-56.898438h37.933593v37.933594h-37.933593zm0 0"/><path d="m161.21875 246.710938h56.898438c5.238281 0 9.484374-4.246094 9.484374-9.484376v-56.898437c0-5.238281-4.246093-9.484375-9.484374-9.484375h-56.898438c-5.238281 0-9.484375 4.246094-9.484375 9.484375v56.898437c0 5.238282 4.246094 9.484376 9.484375 9.484376zm9.480469-56.902344h37.933593v37.933594h-37.933593zm0 0"/><path d="m256.050781 341.542969h56.898438c5.238281 0 9.484375-4.246094 9.484375-9.484375v-56.898438c0-5.238281-4.246094-9.484375-9.484375-9.484375h-56.898438c-5.238281 0-9.484375 4.246094-9.484375 9.484375v56.898438c0 5.238281 4.246094 9.484375 9.484375 9.484375zm9.484375-56.898438h37.929688v37.929688h-37.929688zm0 0"/><path d="m350.882812 341.542969h56.902344c5.234375 0 9.480469-4.246094 9.480469-9.484375v-56.898438c0-5.238281-4.246094-9.484375-9.480469-9.484375h-56.902344c-5.238281 0-9.480468 4.246094-9.480468 9.484375v56.898438c0 5.238281 4.242187 9.484375 9.480468 9.484375zm9.484376-56.898438h37.933593v37.929688h-37.933593zm0 0"/><path d="m445.71875 341.542969h56.898438c5.238281 0 9.484374-4.246094 9.484374-9.484375v-56.898438c0-5.238281-4.246093-9.484375-9.484374-9.484375h-56.898438c-5.238281 0-9.484375 4.246094-9.484375 9.484375v56.898438c0 5.238281 4.246094 9.484375 9.484375 9.484375zm9.480469-56.898438h37.933593v37.929688h-37.933593zm0 0"/><path d="m66.382812 341.542969h56.902344c5.234375 0 9.480469-4.246094 9.480469-9.484375v-56.898438c0-5.238281-4.246094-9.484375-9.480469-9.484375h-56.902344c-5.238281 0-9.480468 4.246094-9.480468 9.484375v56.898438c0 5.238281 4.242187 9.484375 9.480468 9.484375zm9.484376-56.898438h37.933593v37.929688h-37.933593zm0 0"/><path d="m161.21875 341.542969h56.898438c5.238281 0 9.484374-4.246094 9.484374-9.484375v-56.898438c0-5.238281-4.246093-9.484375-9.484374-9.484375h-56.898438c-5.238281 0-9.484375 4.246094-9.484375 9.484375v56.898438c0 5.238281 4.246094 9.484375 9.484375 9.484375zm9.480469-56.898438h37.933593v37.929688h-37.933593zm0 0"/><path d="m256.050781 436.375h56.898438c5.238281 0 9.484375-4.242188 9.484375-9.480469v-56.902343c0-5.238282-4.246094-9.480469-9.484375-9.480469h-56.898438c-5.238281 0-9.484375 4.242187-9.484375 9.480469v56.902343c0 5.238281 4.246094 9.480469 9.484375 9.480469zm9.484375-56.898438h37.929688v37.933594h-37.929688zm0 0"/><path d="m66.382812 436.375h56.902344c5.234375 0 9.480469-4.242188 9.480469-9.480469v-56.902343c0-5.238282-4.246094-9.480469-9.480469-9.480469h-56.902344c-5.238281 0-9.480468 4.242187-9.480468 9.480469v56.902343c0 5.238281 4.242187 9.480469 9.480468 9.480469zm9.484376-56.898438h37.933593v37.933594h-37.933593zm0 0"/><path d="m161.21875 436.375h56.898438c5.238281 0 9.484374-4.242188 9.484374-9.480469v-56.902343c0-5.238282-4.246093-9.480469-9.484374-9.480469h-56.898438c-5.238281 0-9.484375 4.242187-9.484375 9.480469v56.902343c0 5.238281 4.246094 9.480469 9.484375 9.480469zm9.480469-56.898438h37.933593v37.933594h-37.933593zm0 0"/></svg>